<mxfile host="app.diagrams.net" modified="2021-01-21T14:47:07.281Z" agent="5.0 (X11)" etag="Td-7H_VMPvI6kf8FEnbt" version="14.2.5" type="github">
  <diagram id="TX5AygsmMYn5Sqxo0yGN" name="Page-1">
    <mxGraphModel dx="716" dy="483" grid="1" gridSize="10" guides="1" tooltips="1" connect="1" arrows="1" fold="1" page="1" pageScale="1" pageWidth="850" pageHeight="1100" math="0" shadow="0">
      <root>
        <mxCell id="0" />
        <mxCell id="1" parent="0" />
        <mxCell id="Aw4snWHt7EFA5zKAU956-2" style="edgeStyle=orthogonalEdgeStyle;rounded=0;orthogonalLoop=1;jettySize=auto;html=1;entryX=0.5;entryY=0;entryDx=0;entryDy=0;" edge="1" parent="1" source="Aw4snWHt7EFA5zKAU956-132" target="Aw4snWHt7EFA5zKAU956-15">
          <mxGeometry relative="1" as="geometry">
            <mxPoint x="432.5" y="760" as="targetPoint" />
            <mxPoint x="187.5" y="685" as="sourcePoint" />
            <Array as="points">
              <mxPoint x="398" y="680" />
            </Array>
          </mxGeometry>
        </mxCell>
        <mxCell id="Aw4snWHt7EFA5zKAU956-5" style="edgeStyle=orthogonalEdgeStyle;rounded=0;orthogonalLoop=1;jettySize=auto;html=1;entryX=0.5;entryY=0;entryDx=0;entryDy=0;" edge="1" parent="1" source="Aw4snWHt7EFA5zKAU956-132" target="Aw4snWHt7EFA5zKAU956-7">
          <mxGeometry relative="1" as="geometry">
            <mxPoint x="137.5" y="830" as="targetPoint" />
            <mxPoint x="137.5" y="700" as="sourcePoint" />
          </mxGeometry>
        </mxCell>
        <mxCell id="Aw4snWHt7EFA5zKAU956-6" value="&lt;div style=&quot;font-size: 14px;&quot;&gt;10.90.90.1&lt;/div&gt;" style="text;html=1;align=center;verticalAlign=middle;resizable=0;points=[];autosize=1;labelBackgroundColor=#ffffff;fontSize=14;" vertex="1" parent="1">
          <mxGeometry x="97.5" y="722" width="80" height="20" as="geometry" />
        </mxCell>
        <mxCell id="Aw4snWHt7EFA5zKAU956-14" style="edgeStyle=orthogonalEdgeStyle;rounded=0;orthogonalLoop=1;jettySize=auto;html=1;entryX=0;entryY=0.5;entryDx=0;entryDy=0;fontSize=14;" edge="1" parent="1" source="Aw4snWHt7EFA5zKAU956-7" target="Aw4snWHt7EFA5zKAU956-8">
          <mxGeometry relative="1" as="geometry" />
        </mxCell>
        <mxCell id="Aw4snWHt7EFA5zKAU956-23" style="edgeStyle=orthogonalEdgeStyle;rounded=0;orthogonalLoop=1;jettySize=auto;html=1;fontSize=14;" edge="1" parent="1" source="Aw4snWHt7EFA5zKAU956-7" target="Aw4snWHt7EFA5zKAU956-25">
          <mxGeometry relative="1" as="geometry">
            <mxPoint x="137.5" y="860" as="targetPoint" />
          </mxGeometry>
        </mxCell>
        <mxCell id="Aw4snWHt7EFA5zKAU956-7" value="in a pool?" style="rhombus;whiteSpace=wrap;html=1;labelBackgroundColor=#ffffff;fontSize=14;" vertex="1" parent="1">
          <mxGeometry x="77.5" y="760" width="120" height="50" as="geometry" />
        </mxCell>
        <mxCell id="Aw4snWHt7EFA5zKAU956-8" value="Drop" style="rounded=1;whiteSpace=wrap;html=1;labelBackgroundColor=#ffffff;fontSize=14;" vertex="1" parent="1">
          <mxGeometry x="252.25" y="770" width="50" height="30" as="geometry" />
        </mxCell>
        <mxCell id="Aw4snWHt7EFA5zKAU956-11" value="N" style="text;html=1;align=center;verticalAlign=middle;resizable=0;points=[];autosize=1;fontSize=14;labelBackgroundColor=#ffffff;" vertex="1" parent="1">
          <mxGeometry x="199.5" y="775" width="30" height="20" as="geometry" />
        </mxCell>
        <mxCell id="Aw4snWHt7EFA5zKAU956-43" style="edgeStyle=orthogonalEdgeStyle;rounded=0;orthogonalLoop=1;jettySize=auto;html=1;fontSize=14;exitX=0.5;exitY=1;exitDx=0;exitDy=0;" edge="1" parent="1" source="Aw4snWHt7EFA5zKAU956-15" target="Aw4snWHt7EFA5zKAU956-45">
          <mxGeometry relative="1" as="geometry">
            <mxPoint x="487.5" y="1200" as="targetPoint" />
            <mxPoint x="432.5" y="810" as="sourcePoint" />
            <Array as="points">
              <mxPoint x="398" y="1100" />
            </Array>
          </mxGeometry>
        </mxCell>
        <mxCell id="Aw4snWHt7EFA5zKAU956-144" style="edgeStyle=orthogonalEdgeStyle;rounded=0;orthogonalLoop=1;jettySize=auto;html=1;exitX=0;exitY=0.5;exitDx=0;exitDy=0;fontSize=14;" edge="1" parent="1" source="Aw4snWHt7EFA5zKAU956-15" target="Aw4snWHt7EFA5zKAU956-8">
          <mxGeometry relative="1" as="geometry" />
        </mxCell>
        <mxCell id="Aw4snWHt7EFA5zKAU956-15" value="trusted?" style="rhombus;whiteSpace=wrap;html=1;labelBackgroundColor=#ffffff;fontSize=14;" vertex="1" parent="1">
          <mxGeometry x="347.5" y="760" width="100" height="50" as="geometry" />
        </mxCell>
        <mxCell id="Aw4snWHt7EFA5zKAU956-16" value="0.0.0.0" style="text;html=1;align=center;verticalAlign=middle;resizable=0;points=[];autosize=1;fontSize=14;labelBackgroundColor=#ffffff;" vertex="1" parent="1">
          <mxGeometry x="184.5" y="670" width="60" height="20" as="geometry" />
        </mxCell>
        <mxCell id="Aw4snWHt7EFA5zKAU956-21" value="N" style="text;html=1;align=center;verticalAlign=middle;resizable=0;points=[];autosize=1;fontSize=14;labelBackgroundColor=#ffffff;" vertex="1" parent="1">
          <mxGeometry x="317.5" y="775" width="30" height="20" as="geometry" />
        </mxCell>
        <mxCell id="Aw4snWHt7EFA5zKAU956-24" value="Y" style="text;html=1;align=center;verticalAlign=middle;resizable=0;points=[];autosize=1;fontSize=14;labelBackgroundColor=#ffffff;" vertex="1" parent="1">
          <mxGeometry x="127.5" y="818" width="20" height="20" as="geometry" />
        </mxCell>
        <mxCell id="Aw4snWHt7EFA5zKAU956-27" style="edgeStyle=orthogonalEdgeStyle;rounded=0;orthogonalLoop=1;jettySize=auto;html=1;entryX=0;entryY=0.5;entryDx=0;entryDy=0;fontSize=14;" edge="1" parent="1" source="Aw4snWHt7EFA5zKAU956-25" target="Aw4snWHt7EFA5zKAU956-26">
          <mxGeometry relative="1" as="geometry" />
        </mxCell>
        <mxCell id="Aw4snWHt7EFA5zKAU956-31" style="edgeStyle=orthogonalEdgeStyle;rounded=0;orthogonalLoop=1;jettySize=auto;html=1;entryX=0.5;entryY=0;entryDx=0;entryDy=0;fontSize=14;" edge="1" parent="1" source="Aw4snWHt7EFA5zKAU956-25" target="Aw4snWHt7EFA5zKAU956-36">
          <mxGeometry relative="1" as="geometry">
            <mxPoint x="137.5" y="979" as="targetPoint" />
          </mxGeometry>
        </mxCell>
        <mxCell id="Aw4snWHt7EFA5zKAU956-25" value="has pool classes?" style="rhombus;whiteSpace=wrap;html=1;labelBackgroundColor=none;fontSize=14;" vertex="1" parent="1">
          <mxGeometry x="82.5" y="859" width="110" height="70" as="geometry" />
        </mxCell>
        <mxCell id="Aw4snWHt7EFA5zKAU956-33" style="edgeStyle=orthogonalEdgeStyle;rounded=0;orthogonalLoop=1;jettySize=auto;html=1;fontSize=14;entryX=0.5;entryY=0;entryDx=0;entryDy=0;" edge="1" parent="1" source="Aw4snWHt7EFA5zKAU956-26" target="Aw4snWHt7EFA5zKAU956-37">
          <mxGeometry relative="1" as="geometry">
            <mxPoint x="312.5" y="979" as="targetPoint" />
            <Array as="points" />
          </mxGeometry>
        </mxCell>
        <mxCell id="Aw4snWHt7EFA5zKAU956-106" style="edgeStyle=orthogonalEdgeStyle;rounded=0;orthogonalLoop=1;jettySize=auto;html=1;entryX=0.5;entryY=1;entryDx=0;entryDy=0;fontSize=14;" edge="1" parent="1" source="Aw4snWHt7EFA5zKAU956-26" target="Aw4snWHt7EFA5zKAU956-8">
          <mxGeometry relative="1" as="geometry">
            <Array as="points">
              <mxPoint x="312" y="820" />
              <mxPoint x="277" y="820" />
            </Array>
          </mxGeometry>
        </mxCell>
        <mxCell id="Aw4snWHt7EFA5zKAU956-26" value="does pkt&lt;div&gt; match any&lt;/div&gt;&lt;div&gt; class?&lt;/div&gt;" style="rhombus;whiteSpace=wrap;html=1;labelBackgroundColor=none;fontSize=14;" vertex="1" parent="1">
          <mxGeometry x="242" y="853.5" width="140.5" height="81" as="geometry" />
        </mxCell>
        <mxCell id="Aw4snWHt7EFA5zKAU956-28" value="Y" style="text;html=1;align=center;verticalAlign=middle;resizable=0;points=[];autosize=1;fontSize=14;labelBackgroundColor=#ffffff;" vertex="1" parent="1">
          <mxGeometry x="199.5" y="884" width="20" height="20" as="geometry" />
        </mxCell>
        <mxCell id="Aw4snWHt7EFA5zKAU956-30" value="N" style="text;html=1;align=center;verticalAlign=middle;resizable=0;points=[];autosize=1;fontSize=14;labelBackgroundColor=#ffffff;" vertex="1" parent="1">
          <mxGeometry x="298" y="822" width="30" height="20" as="geometry" />
        </mxCell>
        <mxCell id="Aw4snWHt7EFA5zKAU956-32" value="N" style="text;html=1;align=center;verticalAlign=middle;resizable=0;points=[];autosize=1;fontSize=14;labelBackgroundColor=#ffffff;" vertex="1" parent="1">
          <mxGeometry x="122.5" y="939" width="30" height="20" as="geometry" />
        </mxCell>
        <mxCell id="Aw4snWHt7EFA5zKAU956-34" value="Y" style="text;html=1;align=center;verticalAlign=middle;resizable=0;points=[];autosize=1;fontSize=14;labelBackgroundColor=#ffffff;" vertex="1" parent="1">
          <mxGeometry x="302.25" y="947" width="20" height="20" as="geometry" />
        </mxCell>
        <mxCell id="Aw4snWHt7EFA5zKAU956-41" style="edgeStyle=orthogonalEdgeStyle;rounded=0;orthogonalLoop=1;jettySize=auto;html=1;fontSize=14;" edge="1" parent="1" source="Aw4snWHt7EFA5zKAU956-36" target="Aw4snWHt7EFA5zKAU956-45">
          <mxGeometry relative="1" as="geometry">
            <mxPoint x="232.5" y="1131" as="targetPoint" />
            <Array as="points">
              <mxPoint x="138" y="1101" />
              <mxPoint x="138" y="1101" />
            </Array>
          </mxGeometry>
        </mxCell>
        <mxCell id="Aw4snWHt7EFA5zKAU956-36" value="dhcp_servers = &lt;b&gt;pool&lt;/b&gt;.servers" style="rounded=0;whiteSpace=wrap;html=1;labelBackgroundColor=none;fontSize=14;" vertex="1" parent="1">
          <mxGeometry x="75" y="981" width="125" height="60" as="geometry" />
        </mxCell>
        <mxCell id="Aw4snWHt7EFA5zKAU956-42" style="edgeStyle=orthogonalEdgeStyle;rounded=0;orthogonalLoop=1;jettySize=auto;html=1;fontSize=14;" edge="1" parent="1" source="Aw4snWHt7EFA5zKAU956-37" target="Aw4snWHt7EFA5zKAU956-45">
          <mxGeometry relative="1" as="geometry">
            <mxPoint x="232.5" y="1131" as="targetPoint" />
            <Array as="points">
              <mxPoint x="313" y="1050" />
              <mxPoint x="313" y="1050" />
            </Array>
          </mxGeometry>
        </mxCell>
        <mxCell id="Aw4snWHt7EFA5zKAU956-37" value="dhcp_servers = &lt;b&gt;class&lt;/b&gt;.servers" style="rounded=0;whiteSpace=wrap;html=1;labelBackgroundColor=none;fontSize=14;" vertex="1" parent="1">
          <mxGeometry x="250" y="981" width="125" height="60" as="geometry" />
        </mxCell>
        <mxCell id="Aw4snWHt7EFA5zKAU956-44" value="Y" style="text;html=1;align=center;verticalAlign=middle;resizable=0;points=[];autosize=1;fontSize=14;labelBackgroundColor=#ffffff;" vertex="1" parent="1">
          <mxGeometry x="387.5" y="820" width="20" height="20" as="geometry" />
        </mxCell>
        <mxCell id="Aw4snWHt7EFA5zKAU956-47" style="edgeStyle=orthogonalEdgeStyle;rounded=0;orthogonalLoop=1;jettySize=auto;html=1;fontSize=14;" edge="1" parent="1" source="Aw4snWHt7EFA5zKAU956-45" target="Aw4snWHt7EFA5zKAU956-115">
          <mxGeometry relative="1" as="geometry" />
        </mxCell>
        <mxCell id="Aw4snWHt7EFA5zKAU956-45" value="&lt;div&gt;replace GIADDR by VLAN&lt;/div&gt;&lt;div&gt; interface address&lt;/div&gt;" style="rounded=0;whiteSpace=wrap;html=1;labelBackgroundColor=none;fontSize=14;" vertex="1" parent="1">
          <mxGeometry x="112.5" y="1070" width="220" height="60" as="geometry" />
        </mxCell>
        <mxCell id="Aw4snWHt7EFA5zKAU956-46" value="send to dhcp_servers" style="rounded=1;whiteSpace=wrap;html=1;labelBackgroundColor=none;fontSize=14;" vertex="1" parent="1">
          <mxGeometry x="162.5" y="1420" width="120" height="60" as="geometry" />
        </mxCell>
        <mxCell id="Aw4snWHt7EFA5zKAU956-59" style="edgeStyle=orthogonalEdgeStyle;rounded=0;orthogonalLoop=1;jettySize=auto;html=1;entryX=0.5;entryY=0;entryDx=0;entryDy=0;fontSize=14;" edge="1" parent="1" source="Aw4snWHt7EFA5zKAU956-52" target="Aw4snWHt7EFA5zKAU956-58">
          <mxGeometry relative="1" as="geometry" />
        </mxCell>
        <mxCell id="Aw4snWHt7EFA5zKAU956-73" style="edgeStyle=orthogonalEdgeStyle;rounded=0;orthogonalLoop=1;jettySize=auto;html=1;fontSize=14;" edge="1" parent="1" source="Aw4snWHt7EFA5zKAU956-52" target="Aw4snWHt7EFA5zKAU956-72">
          <mxGeometry relative="1" as="geometry" />
        </mxCell>
        <mxCell id="Aw4snWHt7EFA5zKAU956-52" value="dest port" style="rhombus;whiteSpace=wrap;html=1;labelBackgroundColor=none;fontSize=14;" vertex="1" parent="1">
          <mxGeometry x="142.5" y="190" width="80" height="80" as="geometry" />
        </mxCell>
        <mxCell id="Aw4snWHt7EFA5zKAU956-54" style="edgeStyle=orthogonalEdgeStyle;rounded=0;orthogonalLoop=1;jettySize=auto;html=1;entryX=0.5;entryY=0;entryDx=0;entryDy=0;fontSize=14;" edge="1" parent="1" source="Aw4snWHt7EFA5zKAU956-53" target="Aw4snWHt7EFA5zKAU956-52">
          <mxGeometry relative="1" as="geometry" />
        </mxCell>
        <mxCell id="Aw4snWHt7EFA5zKAU956-53" value="recv pkt" style="rounded=1;whiteSpace=wrap;html=1;labelBackgroundColor=none;fontSize=14;" vertex="1" parent="1">
          <mxGeometry x="136.5" y="120" width="92" height="30" as="geometry" />
        </mxCell>
        <mxCell id="Aw4snWHt7EFA5zKAU956-55" value="c2s - от клиента к серверу (порт 68 -&amp;gt; 67)" style="text;html=1;align=left;verticalAlign=middle;resizable=0;points=[];autosize=1;fontSize=14;" vertex="1" parent="1">
          <mxGeometry x="27.5" y="20" width="280" height="20" as="geometry" />
        </mxCell>
        <mxCell id="Aw4snWHt7EFA5zKAU956-56" value="s2c - от сервера к кленту (порт 67 -&amp;gt; 68)" style="text;html=1;align=left;verticalAlign=middle;resizable=0;points=[];autosize=1;fontSize=14;" vertex="1" parent="1">
          <mxGeometry x="27.5" y="40" width="280" height="20" as="geometry" />
        </mxCell>
        <mxCell id="Aw4snWHt7EFA5zKAU956-57" value="s2s - от сервера к серверу (порт 67 -&amp;gt; 67)" style="text;html=1;align=left;verticalAlign=middle;resizable=0;points=[];autosize=1;fontSize=14;" vertex="1" parent="1">
          <mxGeometry x="27.5" y="60" width="290" height="20" as="geometry" />
        </mxCell>
        <mxCell id="Aw4snWHt7EFA5zKAU956-84" style="edgeStyle=orthogonalEdgeStyle;rounded=0;orthogonalLoop=1;jettySize=auto;html=1;fontSize=14;exitX=0.5;exitY=1;exitDx=0;exitDy=0;" edge="1" parent="1" source="Aw4snWHt7EFA5zKAU956-69" target="Aw4snWHt7EFA5zKAU956-112">
          <mxGeometry relative="1" as="geometry">
            <mxPoint x="660" y="500" as="sourcePoint" />
            <mxPoint x="690" y="535" as="targetPoint" />
            <Array as="points">
              <mxPoint x="460" y="1110" />
              <mxPoint x="460" y="1110" />
            </Array>
          </mxGeometry>
        </mxCell>
        <mxCell id="Aw4snWHt7EFA5zKAU956-104" style="edgeStyle=orthogonalEdgeStyle;rounded=0;orthogonalLoop=1;jettySize=auto;html=1;entryX=0.5;entryY=0;entryDx=0;entryDy=0;fontSize=14;" edge="1" parent="1" source="Aw4snWHt7EFA5zKAU956-58" target="Aw4snWHt7EFA5zKAU956-69">
          <mxGeometry relative="1" as="geometry" />
        </mxCell>
        <mxCell id="Aw4snWHt7EFA5zKAU956-58" value="opt82?" style="rhombus;whiteSpace=wrap;html=1;labelBackgroundColor=none;fontSize=14;align=center;" vertex="1" parent="1">
          <mxGeometry x="420" y="299" width="80" height="80" as="geometry" />
        </mxCell>
        <mxCell id="Aw4snWHt7EFA5zKAU956-60" value="68 (client)" style="text;html=1;align=center;verticalAlign=middle;resizable=0;points=[];autosize=1;fontSize=14;labelBackgroundColor=#ffffff;labelBorderColor=none;" vertex="1" parent="1">
          <mxGeometry x="224.5" y="220" width="80" height="20" as="geometry" />
        </mxCell>
        <mxCell id="Aw4snWHt7EFA5zKAU956-64" value="67 (server)" style="text;html=1;align=center;verticalAlign=middle;resizable=0;points=[];autosize=1;fontSize=14;labelBackgroundColor=#ffffff;labelBorderColor=none;" vertex="1" parent="1">
          <mxGeometry x="142.5" y="279" width="80" height="20" as="geometry" />
        </mxCell>
        <mxCell id="Aw4snWHt7EFA5zKAU956-65" value="opt82 - пакет уже содержит опцию 82" style="text;html=1;align=left;verticalAlign=middle;resizable=0;points=[];autosize=1;fontSize=14;" vertex="1" parent="1">
          <mxGeometry x="27.5" y="80" width="260" height="20" as="geometry" />
        </mxCell>
        <mxCell id="Aw4snWHt7EFA5zKAU956-66" value="drop" style="rounded=1;whiteSpace=wrap;html=1;labelBackgroundColor=#ffffff;fontSize=14;align=center;" vertex="1" parent="1">
          <mxGeometry x="157.5" y="444" width="50" height="30" as="geometry" />
        </mxCell>
        <mxCell id="Aw4snWHt7EFA5zKAU956-85" style="edgeStyle=orthogonalEdgeStyle;rounded=0;orthogonalLoop=1;jettySize=auto;html=1;fontSize=14;exitX=1;exitY=0.5;exitDx=0;exitDy=0;" edge="1" parent="1" source="Aw4snWHt7EFA5zKAU956-58" target="Aw4snWHt7EFA5zKAU956-112">
          <mxGeometry relative="1" as="geometry">
            <mxPoint x="750" y="565" as="targetPoint" />
            <Array as="points">
              <mxPoint x="500" y="330" />
              <mxPoint x="550" y="330" />
            </Array>
          </mxGeometry>
        </mxCell>
        <mxCell id="Aw4snWHt7EFA5zKAU956-69" value="rm = true" style="rounded=0;whiteSpace=wrap;html=1;labelBackgroundColor=#ffffff;fontSize=14;align=center;" vertex="1" parent="1">
          <mxGeometry x="425" y="444" width="70" height="30" as="geometry" />
        </mxCell>
        <mxCell id="Aw4snWHt7EFA5zKAU956-71" value="N" style="text;html=1;align=center;verticalAlign=middle;resizable=0;points=[];autosize=1;fontSize=14;labelBackgroundColor=#ffffff;labelBorderColor=none;" vertex="1" parent="1">
          <mxGeometry x="503" y="329" width="30" height="20" as="geometry" />
        </mxCell>
        <mxCell id="Aw4snWHt7EFA5zKAU956-77" style="edgeStyle=orthogonalEdgeStyle;rounded=0;orthogonalLoop=1;jettySize=auto;html=1;fontSize=14;" edge="1" parent="1" source="Aw4snWHt7EFA5zKAU956-72" target="Aw4snWHt7EFA5zKAU956-66">
          <mxGeometry relative="1" as="geometry">
            <mxPoint x="183" y="450" as="targetPoint" />
          </mxGeometry>
        </mxCell>
        <mxCell id="Aw4snWHt7EFA5zKAU956-78" style="edgeStyle=orthogonalEdgeStyle;rounded=0;orthogonalLoop=1;jettySize=auto;html=1;entryX=0.5;entryY=0;entryDx=0;entryDy=0;fontSize=14;" edge="1" parent="1" source="Aw4snWHt7EFA5zKAU956-72" target="Aw4snWHt7EFA5zKAU956-75">
          <mxGeometry relative="1" as="geometry" />
        </mxCell>
        <mxCell id="Aw4snWHt7EFA5zKAU956-87" style="edgeStyle=orthogonalEdgeStyle;rounded=0;orthogonalLoop=1;jettySize=auto;html=1;fontSize=14;" edge="1" parent="1" source="Aw4snWHt7EFA5zKAU956-72" target="Aw4snWHt7EFA5zKAU956-116">
          <mxGeometry relative="1" as="geometry">
            <Array as="points">
              <mxPoint x="60" y="363" />
            </Array>
          </mxGeometry>
        </mxCell>
        <mxCell id="Aw4snWHt7EFA5zKAU956-72" value="policy" style="rhombus;whiteSpace=wrap;html=1;labelBackgroundColor=none;fontSize=14;" vertex="1" parent="1">
          <mxGeometry x="142.5" y="322.5" width="80" height="80" as="geometry" />
        </mxCell>
        <mxCell id="Aw4snWHt7EFA5zKAU956-94" style="edgeStyle=orthogonalEdgeStyle;rounded=0;orthogonalLoop=1;jettySize=auto;html=1;entryX=0.5;entryY=0;entryDx=0;entryDy=0;fontSize=14;" edge="1" parent="1" source="Aw4snWHt7EFA5zKAU956-75" target="Aw4snWHt7EFA5zKAU956-90">
          <mxGeometry relative="1" as="geometry" />
        </mxCell>
        <mxCell id="Aw4snWHt7EFA5zKAU956-75" value="add = true" style="rounded=0;whiteSpace=wrap;html=1;labelBackgroundColor=#ffffff;fontSize=14;align=center;" vertex="1" parent="1">
          <mxGeometry x="255" y="390" width="77.5" height="35" as="geometry" />
        </mxCell>
        <mxCell id="Aw4snWHt7EFA5zKAU956-79" value="drop" style="text;html=1;align=center;verticalAlign=middle;resizable=0;points=[];autosize=1;fontSize=14;labelBackgroundColor=#ffffff;labelBorderColor=none;" vertex="1" parent="1">
          <mxGeometry x="162.5" y="410" width="40" height="20" as="geometry" />
        </mxCell>
        <mxCell id="Aw4snWHt7EFA5zKAU956-80" value="replace" style="text;html=1;align=center;verticalAlign=middle;resizable=0;points=[];autosize=1;fontSize=14;labelBackgroundColor=#ffffff;labelBorderColor=none;" vertex="1" parent="1">
          <mxGeometry x="226" y="352.5" width="60" height="20" as="geometry" />
        </mxCell>
        <mxCell id="Aw4snWHt7EFA5zKAU956-88" value="keep" style="text;html=1;align=center;verticalAlign=middle;resizable=0;points=[];autosize=1;fontSize=14;labelBackgroundColor=#ffffff;labelBorderColor=none;" vertex="1" parent="1">
          <mxGeometry x="89.5" y="352.5" width="50" height="20" as="geometry" />
        </mxCell>
        <mxCell id="Aw4snWHt7EFA5zKAU956-128" style="edgeStyle=orthogonalEdgeStyle;rounded=0;orthogonalLoop=1;jettySize=auto;html=1;fontSize=14;" edge="1" parent="1" source="Aw4snWHt7EFA5zKAU956-90" target="Aw4snWHt7EFA5zKAU956-91">
          <mxGeometry relative="1" as="geometry">
            <Array as="points">
              <mxPoint x="220" y="479" />
              <mxPoint x="220" y="500" />
            </Array>
          </mxGeometry>
        </mxCell>
        <mxCell id="Aw4snWHt7EFA5zKAU956-130" style="edgeStyle=orthogonalEdgeStyle;rounded=0;orthogonalLoop=1;jettySize=auto;html=1;fontSize=14;" edge="1" parent="1" source="Aw4snWHt7EFA5zKAU956-90" target="Aw4snWHt7EFA5zKAU956-116">
          <mxGeometry relative="1" as="geometry">
            <mxPoint x="450" y="620" as="targetPoint" />
            <Array as="points">
              <mxPoint x="294" y="560" />
              <mxPoint x="60" y="560" />
            </Array>
          </mxGeometry>
        </mxCell>
        <mxCell id="Aw4snWHt7EFA5zKAU956-90" value="opt82?" style="rhombus;whiteSpace=wrap;html=1;labelBackgroundColor=none;fontSize=14;align=center;" vertex="1" parent="1">
          <mxGeometry x="254" y="439" width="80" height="80" as="geometry" />
        </mxCell>
        <mxCell id="Aw4snWHt7EFA5zKAU956-129" style="edgeStyle=orthogonalEdgeStyle;rounded=0;orthogonalLoop=1;jettySize=auto;html=1;fontSize=14;" edge="1" parent="1" source="Aw4snWHt7EFA5zKAU956-91" target="Aw4snWHt7EFA5zKAU956-116">
          <mxGeometry relative="1" as="geometry">
            <Array as="points">
              <mxPoint x="60" y="500" />
            </Array>
          </mxGeometry>
        </mxCell>
        <mxCell id="Aw4snWHt7EFA5zKAU956-91" value="rm = true" style="rounded=0;whiteSpace=wrap;html=1;labelBackgroundColor=#ffffff;fontSize=14;align=center;" vertex="1" parent="1">
          <mxGeometry x="75" y="485" width="70" height="30" as="geometry" />
        </mxCell>
        <mxCell id="Aw4snWHt7EFA5zKAU956-93" value="Y" style="text;html=1;align=center;verticalAlign=middle;resizable=0;points=[];autosize=1;fontSize=14;labelBackgroundColor=#ffffff;labelBorderColor=none;" vertex="1" parent="1">
          <mxGeometry x="228.5" y="469" width="20" height="20" as="geometry" />
        </mxCell>
        <mxCell id="Aw4snWHt7EFA5zKAU956-96" value="N" style="text;html=1;align=center;verticalAlign=middle;resizable=0;points=[];autosize=1;fontSize=14;labelBackgroundColor=#ffffff;labelBorderColor=none;" vertex="1" parent="1">
          <mxGeometry x="278.75" y="530" width="30" height="20" as="geometry" />
        </mxCell>
        <mxCell id="Aw4snWHt7EFA5zKAU956-102" value="Y" style="text;html=1;align=center;verticalAlign=middle;resizable=0;points=[];autosize=1;fontSize=14;labelBackgroundColor=#ffffff;labelBorderColor=none;" vertex="1" parent="1">
          <mxGeometry x="450" y="399" width="20" height="20" as="geometry" />
        </mxCell>
        <mxCell id="Aw4snWHt7EFA5zKAU956-109" style="edgeStyle=orthogonalEdgeStyle;rounded=0;orthogonalLoop=1;jettySize=auto;html=1;fontSize=14;" edge="1" parent="1" source="Aw4snWHt7EFA5zKAU956-108" target="Aw4snWHt7EFA5zKAU956-46">
          <mxGeometry relative="1" as="geometry" />
        </mxCell>
        <mxCell id="Aw4snWHt7EFA5zKAU956-108" value="remove/add opt82 by rm/add variables" style="rounded=0;whiteSpace=wrap;html=1;labelBackgroundColor=none;fontSize=14;" vertex="1" parent="1">
          <mxGeometry x="112.5" y="1330" width="220" height="60" as="geometry" />
        </mxCell>
        <mxCell id="Aw4snWHt7EFA5zKAU956-111" style="edgeStyle=orthogonalEdgeStyle;rounded=0;orthogonalLoop=1;jettySize=auto;html=1;entryX=0.5;entryY=0;entryDx=0;entryDy=0;fontSize=14;" edge="1" parent="1" source="Aw4snWHt7EFA5zKAU956-110" target="Aw4snWHt7EFA5zKAU956-108">
          <mxGeometry relative="1" as="geometry" />
        </mxCell>
        <mxCell id="Aw4snWHt7EFA5zKAU956-110" value="increase hops" style="rounded=0;whiteSpace=wrap;html=1;labelBackgroundColor=none;fontSize=14;" vertex="1" parent="1">
          <mxGeometry x="112.5" y="1240" width="220" height="60" as="geometry" />
        </mxCell>
        <mxCell id="Aw4snWHt7EFA5zKAU956-114" style="edgeStyle=orthogonalEdgeStyle;rounded=0;orthogonalLoop=1;jettySize=auto;html=1;fontSize=14;" edge="1" parent="1" source="Aw4snWHt7EFA5zKAU956-112" target="Aw4snWHt7EFA5zKAU956-108">
          <mxGeometry relative="1" as="geometry">
            <Array as="points">
              <mxPoint x="553" y="1360" />
            </Array>
          </mxGeometry>
        </mxCell>
        <mxCell id="Aw4snWHt7EFA5zKAU956-112" value="&lt;div&gt;replace hwsrc by switch addr&lt;/div&gt;&lt;div&gt;replace hwdst by DHCP.client_MAC_address&lt;br&gt;&lt;/div&gt;" style="rounded=0;whiteSpace=wrap;html=1;labelBackgroundColor=none;fontSize=14;align=left;" vertex="1" parent="1">
          <mxGeometry x="407.5" y="1150" width="290" height="60" as="geometry" />
        </mxCell>
        <mxCell id="Aw4snWHt7EFA5zKAU956-127" value="" style="edgeStyle=orthogonalEdgeStyle;rounded=0;orthogonalLoop=1;jettySize=auto;html=1;fontSize=14;" edge="1" parent="1" source="Aw4snWHt7EFA5zKAU956-115" target="Aw4snWHt7EFA5zKAU956-110">
          <mxGeometry relative="1" as="geometry" />
        </mxCell>
        <mxCell id="Aw4snWHt7EFA5zKAU956-115" value="&lt;div&gt;replace hwsrc by switch addr&lt;/div&gt;&lt;div&gt;replace hwdst by DHCP server MAC address&lt;/div&gt;&lt;div&gt;(for every server)&lt;br&gt;&lt;/div&gt;" style="rounded=0;whiteSpace=wrap;html=1;labelBackgroundColor=none;fontSize=14;align=left;" vertex="1" parent="1">
          <mxGeometry x="77.5" y="1150" width="290" height="60" as="geometry" />
        </mxCell>
        <mxCell id="Aw4snWHt7EFA5zKAU956-119" style="edgeStyle=orthogonalEdgeStyle;rounded=0;orthogonalLoop=1;jettySize=auto;html=1;fontSize=14;" edge="1" parent="1" source="Aw4snWHt7EFA5zKAU956-116" target="Aw4snWHt7EFA5zKAU956-110">
          <mxGeometry relative="1" as="geometry">
            <Array as="points">
              <mxPoint x="60" y="1270" />
            </Array>
          </mxGeometry>
        </mxCell>
        <mxCell id="Aw4snWHt7EFA5zKAU956-116" value="&lt;div&gt;local?&lt;/div&gt;" style="rhombus;whiteSpace=wrap;html=1;labelBackgroundColor=#ffffff;fontSize=14;align=center;" vertex="1" parent="1">
          <mxGeometry x="20" y="580" width="80" height="80" as="geometry" />
        </mxCell>
        <mxCell id="Aw4snWHt7EFA5zKAU956-120" value="Y" style="text;html=1;align=center;verticalAlign=middle;resizable=0;points=[];autosize=1;fontSize=14;labelBackgroundColor=#ffffff;" vertex="1" parent="1">
          <mxGeometry x="50" y="669" width="20" height="20" as="geometry" />
        </mxCell>
        <mxCell id="Aw4snWHt7EFA5zKAU956-132" value="&lt;div align=&quot;center&quot;&gt;GIADDR&lt;/div&gt;" style="rhombus;whiteSpace=wrap;html=1;labelBackgroundColor=#ffffff;fontSize=14;align=center;" vertex="1" parent="1">
          <mxGeometry x="97.5" y="640" width="80" height="80" as="geometry" />
        </mxCell>
        <mxCell id="Aw4snWHt7EFA5zKAU956-133" style="edgeStyle=orthogonalEdgeStyle;rounded=0;orthogonalLoop=1;jettySize=auto;html=1;exitX=1;exitY=0.5;exitDx=0;exitDy=0;fontSize=14;entryX=0.5;entryY=0;entryDx=0;entryDy=0;" edge="1" parent="1" source="Aw4snWHt7EFA5zKAU956-116" target="Aw4snWHt7EFA5zKAU956-132">
          <mxGeometry relative="1" as="geometry">
            <mxPoint x="100" y="680" as="sourcePoint" />
            <mxPoint x="270" y="670" as="targetPoint" />
            <Array as="points" />
          </mxGeometry>
        </mxCell>
        <mxCell id="Aw4snWHt7EFA5zKAU956-135" value="N" style="text;html=1;align=center;verticalAlign=middle;resizable=0;points=[];autosize=1;fontSize=14;labelBackgroundColor=#ffffff;" vertex="1" parent="1">
          <mxGeometry x="100" y="610" width="30" height="20" as="geometry" />
        </mxCell>
      </root>
    </mxGraphModel>
  </diagram>
</mxfile>
